<mxfile host="65bd71144e" scale="2" border="0">
    <diagram id="hVLDoCsmS3z9Lpufin91" name="Page-1">
        <mxGraphModel dx="809" dy="620" grid="1" gridSize="10" guides="1" tooltips="1" connect="1" arrows="1" fold="1" page="1" pageScale="1" pageWidth="3300" pageHeight="4681" background="#FFFFFF" math="0" shadow="0">
            <root>
                <mxCell id="0"/>
                <mxCell id="1" parent="0"/>
                <mxCell id="78" value="" style="rounded=1;whiteSpace=wrap;html=1;sketch=0;arcSize=7;strokeColor=#457B9D;dashed=1;strokeWidth=2;labelBackgroundColor=none;noLabel=1;fontColor=none;fillColor=none;" vertex="1" parent="1">
                    <mxGeometry x="430" y="10" width="370" height="370" as="geometry"/>
                </mxCell>
                <mxCell id="77" value="" style="rounded=1;whiteSpace=wrap;html=1;sketch=0;fontColor=#1D3557;arcSize=7;fillColor=none;strokeColor=#457B9D;dashed=1;strokeWidth=2;" vertex="1" parent="1">
                    <mxGeometry x="40" y="10" width="290" height="370" as="geometry"/>
                </mxCell>
                <mxCell id="11" value="&lt;font style=&quot;font-size: 15px;&quot;&gt;数据库&lt;/font&gt;" style="shape=cylinder3;whiteSpace=wrap;html=1;boundedLbl=1;backgroundOutline=1;size=15;rounded=0;sketch=0;strokeColor=#457B9D;fillColor=#A8DADC;fontColor=#1D3557;fontSize=15;" parent="1" vertex="1">
                    <mxGeometry x="340" y="180" width="80" height="100" as="geometry"/>
                </mxCell>
                <mxCell id="86" style="edgeStyle=orthogonalEdgeStyle;curved=0;rounded=1;sketch=0;orthogonalLoop=1;jettySize=auto;html=1;exitX=0.5;exitY=1;exitDx=0;exitDy=0;entryX=0.5;entryY=0;entryDx=0;entryDy=0;strokeColor=#457B9D;fillColor=#A8DADC;fontColor=#1D3557;labelBackgroundColor=#F1FAEE;" edge="1" parent="1" source="12" target="85">
                    <mxGeometry relative="1" as="geometry"/>
                </mxCell>
                <mxCell id="12" value="学生账号登录" style="rounded=0;whiteSpace=wrap;html=1;sketch=0;strokeColor=#457B9D;fillColor=#A8DADC;fontColor=#1D3557;fontSize=15;" parent="1" vertex="1">
                    <mxGeometry x="130" y="50" width="110" height="30" as="geometry"/>
                </mxCell>
                <mxCell id="14" value="" style="endArrow=classic;startArrow=classic;html=1;strokeColor=#457B9D;fillColor=#A8DADC;fontColor=#1D3557;entryX=0.5;entryY=0;entryDx=0;entryDy=0;entryPerimeter=0;exitX=1;exitY=0.5;exitDx=0;exitDy=0;fontSize=15;labelBackgroundColor=#F1FAEE;" parent="1" source="12" target="11" edge="1">
                    <mxGeometry width="50" height="50" relative="1" as="geometry">
                        <mxPoint x="390" y="340" as="sourcePoint"/>
                        <mxPoint x="440" y="290" as="targetPoint"/>
                        <Array as="points">
                            <mxPoint x="380" y="65"/>
                        </Array>
                    </mxGeometry>
                </mxCell>
                <mxCell id="16" value="&lt;font style=&quot;font-size: 15px&quot;&gt;检验登录信息&lt;/font&gt;" style="edgeLabel;html=1;align=center;verticalAlign=middle;resizable=0;points=[];fontColor=#1D3557;labelBackgroundColor=none;fontSize=15;rotation=0;" parent="14" vertex="1" connectable="0">
                    <mxGeometry x="-0.1386" y="-2" relative="1" as="geometry">
                        <mxPoint x="30" y="-17" as="offset"/>
                    </mxGeometry>
                </mxCell>
                <mxCell id="17" value="安全知识学习" style="rounded=0;whiteSpace=wrap;html=1;sketch=0;strokeColor=#457B9D;fillColor=#A8DADC;fontColor=#1D3557;fontSize=15;" parent="1" vertex="1">
                    <mxGeometry x="140" y="170" width="100" height="30" as="geometry"/>
                </mxCell>
                <mxCell id="18" value="安全测试" style="rounded=0;whiteSpace=wrap;html=1;sketch=0;strokeColor=#457B9D;fillColor=#A8DADC;fontColor=#1D3557;fontSize=15;" parent="1" vertex="1">
                    <mxGeometry x="140" y="250" width="100" height="30" as="geometry"/>
                </mxCell>
                <mxCell id="19" value="安全模拟操作" style="rounded=0;whiteSpace=wrap;html=1;sketch=0;strokeColor=#457B9D;fillColor=#A8DADC;fontColor=#1D3557;fontSize=15;" parent="1" vertex="1">
                    <mxGeometry x="140" y="210" width="100" height="30" as="geometry"/>
                </mxCell>
                <mxCell id="20" value="系统设置" style="rounded=0;whiteSpace=wrap;html=1;sketch=0;strokeColor=#457B9D;fillColor=#A8DADC;fontSize=15;fontColor=#1D3557;" parent="1" vertex="1">
                    <mxGeometry x="140" y="290" width="100" height="30" as="geometry"/>
                </mxCell>
                <mxCell id="21" value="" style="endArrow=classic;html=1;strokeColor=#457B9D;fillColor=#A8DADC;fontSize=15;fontColor=#1D3557;entryX=0;entryY=0.5;entryDx=0;entryDy=0;exitX=0.5;exitY=1;exitDx=0;exitDy=0;labelBackgroundColor=#F1FAEE;" parent="1" source="85" target="17" edge="1">
                    <mxGeometry width="50" height="50" relative="1" as="geometry">
                        <mxPoint x="70" y="125" as="sourcePoint"/>
                        <mxPoint x="350" y="290" as="targetPoint"/>
                        <Array as="points">
                            <mxPoint x="120" y="185"/>
                        </Array>
                    </mxGeometry>
                </mxCell>
                <mxCell id="22" value="" style="endArrow=classic;html=1;strokeColor=#457B9D;fillColor=#A8DADC;fontSize=15;fontColor=#1D3557;entryX=0;entryY=0.5;entryDx=0;entryDy=0;labelBackgroundColor=#F1FAEE;" parent="1" target="19" edge="1">
                    <mxGeometry width="50" height="50" relative="1" as="geometry">
                        <mxPoint x="120" y="160" as="sourcePoint"/>
                        <mxPoint x="440" y="300" as="targetPoint"/>
                        <Array as="points">
                            <mxPoint x="120" y="225"/>
                        </Array>
                    </mxGeometry>
                </mxCell>
                <mxCell id="23" value="" style="endArrow=classic;html=1;strokeColor=#457B9D;fillColor=#A8DADC;fontSize=15;fontColor=#1D3557;entryX=0;entryY=0.5;entryDx=0;entryDy=0;labelBackgroundColor=#F1FAEE;" parent="1" target="18" edge="1">
                    <mxGeometry width="50" height="50" relative="1" as="geometry">
                        <mxPoint x="120" y="170" as="sourcePoint"/>
                        <mxPoint x="150" y="235" as="targetPoint"/>
                        <Array as="points">
                            <mxPoint x="120" y="265"/>
                        </Array>
                    </mxGeometry>
                </mxCell>
                <mxCell id="24" value="" style="endArrow=classic;html=1;strokeColor=#457B9D;fillColor=#A8DADC;fontSize=15;fontColor=#1D3557;entryX=0;entryY=0.5;entryDx=0;entryDy=0;labelBackgroundColor=#F1FAEE;" parent="1" target="20" edge="1">
                    <mxGeometry width="50" height="50" relative="1" as="geometry">
                        <mxPoint x="120" y="200" as="sourcePoint"/>
                        <mxPoint x="160" y="245" as="targetPoint"/>
                        <Array as="points">
                            <mxPoint x="120" y="305"/>
                        </Array>
                    </mxGeometry>
                </mxCell>
                <mxCell id="30" value="" style="endArrow=classic;html=1;strokeColor=#457B9D;fillColor=#A8DADC;fontSize=15;fontColor=#1D3557;exitX=1;exitY=0.5;exitDx=0;exitDy=0;entryX=0;entryY=0.5;entryDx=0;entryDy=0;entryPerimeter=0;labelBackgroundColor=#F1FAEE;startArrow=classic;startFill=1;" parent="1" source="18" target="11" edge="1">
                    <mxGeometry width="50" height="50" relative="1" as="geometry">
                        <mxPoint x="300" y="340" as="sourcePoint"/>
                        <mxPoint x="260" y="240" as="targetPoint"/>
                        <Array as="points">
                            <mxPoint x="250" y="230"/>
                        </Array>
                    </mxGeometry>
                </mxCell>
                <mxCell id="35" value="" style="endArrow=classic;html=1;strokeColor=#457B9D;fillColor=#A8DADC;fontSize=15;fontColor=#1D3557;entryX=0;entryY=0.5;entryDx=0;entryDy=0;entryPerimeter=0;exitX=1;exitY=0.5;exitDx=0;exitDy=0;labelBackgroundColor=#F1FAEE;startArrow=classic;startFill=1;" parent="1" source="19" target="11" edge="1">
                    <mxGeometry width="50" height="50" relative="1" as="geometry">
                        <mxPoint x="300" y="340" as="sourcePoint"/>
                        <mxPoint x="350" y="290" as="targetPoint"/>
                        <Array as="points">
                            <mxPoint x="250" y="230"/>
                        </Array>
                    </mxGeometry>
                </mxCell>
                <mxCell id="36" value="上传成绩" style="edgeLabel;html=1;align=center;verticalAlign=middle;resizable=0;points=[];fontSize=15;fontColor=#1D3557;labelBackgroundColor=none;" parent="35" vertex="1" connectable="0">
                    <mxGeometry x="-0.2354" y="3" relative="1" as="geometry">
                        <mxPoint x="13" y="-7" as="offset"/>
                    </mxGeometry>
                </mxCell>
                <mxCell id="37" value="" style="endArrow=classic;html=1;strokeColor=#457B9D;fillColor=#A8DADC;fontSize=15;fontColor=#1D3557;exitX=1;exitY=0.5;exitDx=0;exitDy=0;entryX=0.5;entryY=1;entryDx=0;entryDy=0;entryPerimeter=0;labelBackgroundColor=#F1FAEE;" parent="1" source="20" target="11" edge="1">
                    <mxGeometry width="50" height="50" relative="1" as="geometry">
                        <mxPoint x="300" y="340" as="sourcePoint"/>
                        <mxPoint x="350" y="290" as="targetPoint"/>
                        <Array as="points">
                            <mxPoint x="340" y="305"/>
                        </Array>
                    </mxGeometry>
                </mxCell>
                <mxCell id="39" value="修改密码" style="edgeLabel;html=1;align=center;verticalAlign=middle;resizable=0;points=[];fontSize=15;fontColor=#1D3557;labelBackgroundColor=none;" parent="37" vertex="1" connectable="0">
                    <mxGeometry x="-0.1517" y="1" relative="1" as="geometry">
                        <mxPoint x="-12" y="-9" as="offset"/>
                    </mxGeometry>
                </mxCell>
                <mxCell id="40" value="" style="endArrow=classic;html=1;strokeColor=#457B9D;fillColor=#A8DADC;fontSize=15;fontColor=#1D3557;exitX=0.5;exitY=1;exitDx=0;exitDy=0;entryX=0;entryY=0.5;entryDx=0;entryDy=0;entryPerimeter=0;labelBackgroundColor=#F1FAEE;" parent="1" source="20" target="42" edge="1">
                    <mxGeometry width="50" height="50" relative="1" as="geometry">
                        <mxPoint x="300" y="340" as="sourcePoint"/>
                        <mxPoint x="280" y="361.53846153846155" as="targetPoint"/>
                        <Array as="points">
                            <mxPoint x="220" y="355"/>
                        </Array>
                    </mxGeometry>
                </mxCell>
                <mxCell id="43" value="&lt;span style=&quot;font-size: 15px&quot;&gt;导出离线成绩&lt;/span&gt;" style="edgeLabel;html=1;align=center;verticalAlign=middle;resizable=0;points=[];fontColor=#1D3557;labelBackgroundColor=none;" parent="40" vertex="1" connectable="0">
                    <mxGeometry x="-0.0416" relative="1" as="geometry">
                        <mxPoint x="28.1" y="-10" as="offset"/>
                    </mxGeometry>
                </mxCell>
                <mxCell id="42" value="&lt;font style=&quot;font-size: 15px&quot;&gt;加密成绩&lt;br&gt;文件&lt;/font&gt;" style="shape=note;whiteSpace=wrap;html=1;backgroundOutline=1;darkOpacity=0.05;rounded=0;sketch=0;strokeColor=#457B9D;fillColor=#A8DADC;fontColor=#1D3557;size=21;" parent="1" vertex="1">
                    <mxGeometry x="340" y="310" width="80" height="90" as="geometry"/>
                </mxCell>
                <mxCell id="94" style="edgeStyle=orthogonalEdgeStyle;curved=0;rounded=1;sketch=0;orthogonalLoop=1;jettySize=auto;html=1;exitX=0.5;exitY=1;exitDx=0;exitDy=0;entryX=0.5;entryY=0;entryDx=0;entryDy=0;startArrow=classic;startFill=1;strokeColor=#457B9D;fillColor=#A8DADC;fontColor=none;" edge="1" parent="1" source="44" target="87">
                    <mxGeometry relative="1" as="geometry"/>
                </mxCell>
                <mxCell id="44" value="教师账号登录" style="rounded=0;whiteSpace=wrap;html=1;sketch=0;strokeColor=#457B9D;fillColor=#A8DADC;fontColor=#1D3557;fontSize=15;" parent="1" vertex="1">
                    <mxGeometry x="520" y="50" width="110" height="30" as="geometry"/>
                </mxCell>
                <mxCell id="45" value="用户管理" style="rounded=0;whiteSpace=wrap;html=1;sketch=0;strokeColor=#457B9D;fillColor=#A8DADC;fontColor=#1D3557;fontSize=15;" parent="1" vertex="1">
                    <mxGeometry x="520" y="170" width="100" height="30" as="geometry"/>
                </mxCell>
                <mxCell id="46" value="成绩分析" style="rounded=0;whiteSpace=wrap;html=1;sketch=0;strokeColor=#457B9D;fillColor=#A8DADC;fontColor=#1D3557;fontSize=15;" parent="1" vertex="1">
                    <mxGeometry x="520" y="250" width="100" height="30" as="geometry"/>
                </mxCell>
                <mxCell id="47" value="题库管理" style="rounded=0;whiteSpace=wrap;html=1;sketch=0;strokeColor=#457B9D;fillColor=#A8DADC;fontColor=#1D3557;fontSize=15;" parent="1" vertex="1">
                    <mxGeometry x="520" y="210" width="100" height="30" as="geometry"/>
                </mxCell>
                <mxCell id="48" value="系统设置" style="rounded=0;whiteSpace=wrap;html=1;sketch=0;strokeColor=#457B9D;fillColor=#A8DADC;fontSize=15;fontColor=#1D3557;" parent="1" vertex="1">
                    <mxGeometry x="520" y="290" width="100" height="30" as="geometry"/>
                </mxCell>
                <mxCell id="53" value="" style="endArrow=classic;html=1;strokeColor=#457B9D;fillColor=#A8DADC;fontColor=#1D3557;exitX=0;exitY=0.5;exitDx=0;exitDy=0;startArrow=classic;startFill=1;labelBackgroundColor=none;" parent="1" source="44" edge="1">
                    <mxGeometry width="50" height="50" relative="1" as="geometry">
                        <mxPoint x="450" y="160" as="sourcePoint"/>
                        <mxPoint x="380" y="180" as="targetPoint"/>
                        <Array as="points">
                            <mxPoint x="380" y="65"/>
                        </Array>
                    </mxGeometry>
                </mxCell>
                <mxCell id="54" value="" style="endArrow=classic;html=1;strokeColor=#457B9D;fillColor=#A8DADC;fontColor=#1D3557;exitX=0.5;exitY=1;exitDx=0;exitDy=0;entryX=1;entryY=0.5;entryDx=0;entryDy=0;labelBackgroundColor=#F1FAEE;" parent="1" source="87" target="45" edge="1">
                    <mxGeometry width="50" height="50" relative="1" as="geometry">
                        <mxPoint x="660" y="220" as="sourcePoint"/>
                        <mxPoint x="710" y="170" as="targetPoint"/>
                        <Array as="points">
                            <mxPoint x="640" y="185"/>
                        </Array>
                    </mxGeometry>
                </mxCell>
                <mxCell id="59" value="" style="endArrow=classic;html=1;strokeColor=#457B9D;fillColor=#A8DADC;fontSize=15;fontColor=#1D3557;entryX=0;entryY=0.5;entryDx=0;entryDy=0;startArrow=classic;startFill=1;labelBackgroundColor=#F1FAEE;" parent="1" target="45" edge="1">
                    <mxGeometry width="50" height="50" relative="1" as="geometry">
                        <mxPoint x="420" y="210" as="sourcePoint"/>
                        <mxPoint x="570" y="405" as="targetPoint"/>
                        <Array as="points">
                            <mxPoint x="440" y="185"/>
                        </Array>
                    </mxGeometry>
                </mxCell>
                <mxCell id="62" value="用户信息" style="edgeLabel;html=1;align=center;verticalAlign=middle;resizable=0;points=[];fontColor=#1D3557;fontSize=15;labelBackgroundColor=none;" parent="59" vertex="1" connectable="0">
                    <mxGeometry x="-0.0801" y="1" relative="1" as="geometry">
                        <mxPoint x="17.1" y="-9" as="offset"/>
                    </mxGeometry>
                </mxCell>
                <mxCell id="60" value="" style="endArrow=classic;html=1;strokeColor=#457B9D;fillColor=#A8DADC;fontSize=15;fontColor=#1D3557;entryX=0;entryY=0.5;entryDx=0;entryDy=0;exitX=1;exitY=0;exitDx=0;exitDy=67.5;exitPerimeter=0;startArrow=classic;startFill=1;labelBackgroundColor=#F1FAEE;" parent="1" source="11" target="46" edge="1">
                    <mxGeometry width="50" height="50" relative="1" as="geometry">
                        <mxPoint x="470" y="400" as="sourcePoint"/>
                        <mxPoint x="570" y="405" as="targetPoint"/>
                        <Array as="points">
                            <mxPoint x="440" y="265"/>
                        </Array>
                    </mxGeometry>
                </mxCell>
                <mxCell id="61" value="成绩信息" style="edgeLabel;html=1;align=center;verticalAlign=middle;resizable=0;points=[];fontSize=15;fontColor=#1D3557;labelBackgroundColor=none;" parent="60" vertex="1" connectable="0">
                    <mxGeometry x="-0.2354" y="3" relative="1" as="geometry">
                        <mxPoint x="23" y="-7" as="offset"/>
                    </mxGeometry>
                </mxCell>
                <mxCell id="63" value="" style="endArrow=classic;html=1;strokeColor=#457B9D;fillColor=#A8DADC;fontSize=15;fontColor=#1D3557;exitX=1;exitY=0.5;exitDx=0;exitDy=0;entryX=0;entryY=0.5;entryDx=0;entryDy=0;exitPerimeter=0;startArrow=classic;startFill=1;labelBackgroundColor=#F1FAEE;" parent="1" source="11" target="47" edge="1">
                    <mxGeometry width="50" height="50" relative="1" as="geometry">
                        <mxPoint x="430" y="285" as="sourcePoint"/>
                        <mxPoint x="530" y="240" as="targetPoint"/>
                        <Array as="points">
                            <mxPoint x="440" y="225"/>
                        </Array>
                    </mxGeometry>
                </mxCell>
                <mxCell id="64" value="题库信息" style="edgeLabel;html=1;align=center;verticalAlign=middle;resizable=0;points=[];fontColor=#1D3557;fontSize=15;labelBackgroundColor=none;" parent="63" vertex="1" connectable="0">
                    <mxGeometry x="-0.0801" y="1" relative="1" as="geometry">
                        <mxPoint x="13.100000000000001" y="-9" as="offset"/>
                    </mxGeometry>
                </mxCell>
                <mxCell id="65" value="" style="endArrow=classic;html=1;strokeColor=#457B9D;fillColor=#A8DADC;fontSize=15;fontColor=#1D3557;exitX=0;exitY=0.5;exitDx=0;exitDy=0;entryX=0.5;entryY=1;entryDx=0;entryDy=0;entryPerimeter=0;labelBackgroundColor=#F1FAEE;" parent="1" source="48" target="11" edge="1">
                    <mxGeometry width="50" height="50" relative="1" as="geometry">
                        <mxPoint x="250" y="315" as="sourcePoint"/>
                        <mxPoint x="390" y="290" as="targetPoint"/>
                        <Array as="points">
                            <mxPoint x="420" y="305"/>
                        </Array>
                    </mxGeometry>
                </mxCell>
                <mxCell id="66" value="修改密码" style="edgeLabel;html=1;align=center;verticalAlign=middle;resizable=0;points=[];fontSize=15;fontColor=#1D3557;labelBackgroundColor=none;" parent="65" vertex="1" connectable="0">
                    <mxGeometry x="-0.1517" y="1" relative="1" as="geometry">
                        <mxPoint x="12" y="-11" as="offset"/>
                    </mxGeometry>
                </mxCell>
                <mxCell id="67" value="" style="endArrow=classic;html=1;strokeColor=#457B9D;fillColor=#A8DADC;fontSize=15;fontColor=#1D3557;exitX=0.994;exitY=0.511;exitDx=0;exitDy=0;entryX=0.5;entryY=1;entryDx=0;entryDy=0;exitPerimeter=0;labelBackgroundColor=#F1FAEE;" parent="1" source="42" target="48" edge="1">
                    <mxGeometry width="50" height="50" relative="1" as="geometry">
                        <mxPoint x="200" y="330" as="sourcePoint"/>
                        <mxPoint x="350" y="365" as="targetPoint"/>
                        <Array as="points">
                            <mxPoint x="540" y="356"/>
                        </Array>
                    </mxGeometry>
                </mxCell>
                <mxCell id="68" value="&lt;span style=&quot;font-size: 15px&quot;&gt;导入离线成绩&lt;/span&gt;" style="edgeLabel;html=1;align=center;verticalAlign=middle;resizable=0;points=[];fontColor=#1D3557;labelBackgroundColor=none;" parent="67" vertex="1" connectable="0">
                    <mxGeometry x="-0.0416" relative="1" as="geometry">
                        <mxPoint x="-24.479999999999997" y="-10" as="offset"/>
                    </mxGeometry>
                </mxCell>
                <mxCell id="72" value="" style="endArrow=classic;html=1;labelBackgroundColor=none;strokeColor=#457B9D;fillColor=#A8DADC;fontSize=15;fontColor=#1D3557;exitX=0.25;exitY=1;exitDx=0;exitDy=0;entryX=0.5;entryY=0;entryDx=0;entryDy=0;" parent="1" source="20" target="12" edge="1">
                    <mxGeometry width="50" height="50" relative="1" as="geometry">
                        <mxPoint x="300" y="320" as="sourcePoint"/>
                        <mxPoint x="155" y="100" as="targetPoint"/>
                        <Array as="points">
                            <mxPoint x="165" y="350"/>
                            <mxPoint x="60" y="350"/>
                            <mxPoint x="60" y="30"/>
                            <mxPoint x="185" y="30"/>
                        </Array>
                    </mxGeometry>
                </mxCell>
                <mxCell id="74" value="登出" style="edgeLabel;html=1;align=center;verticalAlign=middle;resizable=0;points=[];fontSize=15;fontColor=#1D3557;labelBackgroundColor=none;" parent="72" vertex="1" connectable="0">
                    <mxGeometry x="-0.751" y="-2" relative="1" as="geometry">
                        <mxPoint x="-22" y="-8" as="offset"/>
                    </mxGeometry>
                </mxCell>
                <mxCell id="73" value="" style="endArrow=classic;html=1;labelBackgroundColor=none;strokeColor=#457B9D;fillColor=#A8DADC;fontSize=15;fontColor=#1D3557;exitX=0.25;exitY=1;exitDx=0;exitDy=0;entryX=0.5;entryY=0;entryDx=0;entryDy=0;" parent="1" edge="1" target="44">
                    <mxGeometry width="50" height="50" relative="1" as="geometry">
                        <mxPoint x="595" y="320" as="sourcePoint"/>
                        <mxPoint x="585" y="110" as="targetPoint"/>
                        <Array as="points">
                            <mxPoint x="595" y="350"/>
                            <mxPoint x="700" y="350"/>
                            <mxPoint x="700" y="30"/>
                            <mxPoint x="575" y="30"/>
                        </Array>
                    </mxGeometry>
                </mxCell>
                <mxCell id="75" value="登出" style="edgeLabel;html=1;align=center;verticalAlign=middle;resizable=0;points=[];fontSize=15;fontColor=#1D3557;labelBackgroundColor=none;" parent="73" vertex="1" connectable="0">
                    <mxGeometry x="-0.6208" y="3" relative="1" as="geometry">
                        <mxPoint x="-15" y="-7" as="offset"/>
                    </mxGeometry>
                </mxCell>
                <mxCell id="81" value="&lt;font style=&quot;font-size: 18px&quot;&gt;学生端&lt;/font&gt;" style="text;html=1;strokeColor=none;fillColor=none;align=center;verticalAlign=middle;whiteSpace=wrap;rounded=0;dashed=1;sketch=0;fontColor=#1D3557;" vertex="1" parent="1">
                    <mxGeometry x="250" y="20" width="70" height="20" as="geometry"/>
                </mxCell>
                <mxCell id="82" value="&lt;font style=&quot;font-size: 18px&quot;&gt;教师端&lt;/font&gt;" style="text;html=1;strokeColor=none;fillColor=none;align=center;verticalAlign=middle;whiteSpace=wrap;rounded=0;dashed=1;sketch=0;fontColor=#1D3557;" vertex="1" parent="1">
                    <mxGeometry x="440" y="20" width="70" height="20" as="geometry"/>
                </mxCell>
                <mxCell id="85" value="&lt;font style=&quot;font-size: 15px&quot;&gt;导航界面&lt;/font&gt;" style="rounded=0;whiteSpace=wrap;html=1;sketch=0;strokeColor=#457B9D;fillColor=#A8DADC;fontColor=#1D3557;" vertex="1" parent="1">
                    <mxGeometry x="80" y="130" width="80" height="30" as="geometry"/>
                </mxCell>
                <mxCell id="87" value="&lt;font style=&quot;font-size: 15px&quot;&gt;导航界面&lt;/font&gt;" style="rounded=0;whiteSpace=wrap;html=1;sketch=0;strokeColor=#457B9D;fillColor=#A8DADC;fontColor=#1D3557;" vertex="1" parent="1">
                    <mxGeometry x="600" y="130" width="80" height="30" as="geometry"/>
                </mxCell>
                <mxCell id="55" value="" style="endArrow=classic;html=1;strokeColor=#457B9D;fillColor=#A8DADC;fontColor=#1D3557;entryX=1;entryY=0.5;entryDx=0;entryDy=0;labelBackgroundColor=#F1FAEE;" parent="1" target="47" edge="1">
                    <mxGeometry x="690" y="225" width="50" height="50" as="geometry">
                        <mxPoint x="640" y="160" as="sourcePoint"/>
                        <mxPoint x="720" y="240" as="targetPoint"/>
                        <Array as="points">
                            <mxPoint x="640" y="225"/>
                        </Array>
                    </mxGeometry>
                </mxCell>
                <mxCell id="56" value="" style="endArrow=classic;html=1;strokeColor=#457B9D;fillColor=#A8DADC;fontColor=#1D3557;entryX=1;entryY=0.5;entryDx=0;entryDy=0;labelBackgroundColor=#F1FAEE;" parent="1" edge="1">
                    <mxGeometry x="690" y="225" width="50" height="50" as="geometry">
                        <mxPoint x="640" y="200" as="sourcePoint"/>
                        <mxPoint x="620" y="265" as="targetPoint"/>
                        <Array as="points">
                            <mxPoint x="640" y="265"/>
                        </Array>
                    </mxGeometry>
                </mxCell>
                <mxCell id="57" value="" style="endArrow=classic;html=1;strokeColor=#457B9D;fillColor=#A8DADC;fontColor=#1D3557;entryX=1;entryY=0.5;entryDx=0;entryDy=0;labelBackgroundColor=#F1FAEE;" parent="1" edge="1">
                    <mxGeometry x="690" y="225" width="50" height="50" as="geometry">
                        <mxPoint x="640" y="240" as="sourcePoint"/>
                        <mxPoint x="620" y="305" as="targetPoint"/>
                        <Array as="points">
                            <mxPoint x="640" y="305"/>
                        </Array>
                    </mxGeometry>
                </mxCell>
                <mxCell id="89" value="&lt;span style=&quot;font-size: 15px&quot;&gt;导入模板&lt;br&gt;文件.xls&lt;/span&gt;" style="shape=note;whiteSpace=wrap;html=1;backgroundOutline=1;darkOpacity=0.05;rounded=0;sketch=0;strokeColor=#457B9D;fillColor=#A8DADC;fontColor=#1D3557;size=21;" vertex="1" parent="1">
                    <mxGeometry x="710" y="80" width="80" height="90" as="geometry"/>
                </mxCell>
                <mxCell id="90" value="" style="endArrow=classic;html=1;strokeColor=#457B9D;fillColor=#A8DADC;fontColor=#1D3557;exitX=0.5;exitY=1;exitDx=0;exitDy=0;exitPerimeter=0;entryX=1;entryY=1;entryDx=0;entryDy=0;labelBackgroundColor=#F1FAEE;" edge="1" parent="1" source="89" target="45">
                    <mxGeometry width="50" height="50" relative="1" as="geometry">
                        <mxPoint x="410" y="230" as="sourcePoint"/>
                        <mxPoint x="460" y="180" as="targetPoint"/>
                        <Array as="points">
                            <mxPoint x="750" y="200"/>
                        </Array>
                    </mxGeometry>
                </mxCell>
                <mxCell id="91" value="" style="endArrow=classic;html=1;strokeColor=#457B9D;fillColor=#A8DADC;fontColor=#1D3557;labelBackgroundColor=#F1FAEE;startArrow=classic;startFill=1;" edge="1" parent="1">
                    <mxGeometry width="50" height="50" relative="1" as="geometry">
                        <mxPoint x="750" y="170" as="sourcePoint"/>
                        <mxPoint x="620" y="240" as="targetPoint"/>
                        <Array as="points">
                            <mxPoint x="750" y="240"/>
                        </Array>
                    </mxGeometry>
                </mxCell>
                <mxCell id="93" value="&lt;span style=&quot;font-size: 15px&quot;&gt;下载模板、填入数据后导入&lt;/span&gt;" style="text;html=1;strokeColor=none;fillColor=none;align=center;verticalAlign=middle;whiteSpace=wrap;rounded=0;labelBackgroundColor=none;sketch=0;fontColor=#1D3557;" vertex="1" parent="1">
                    <mxGeometry x="700" y="250" width="100" height="20" as="geometry"/>
                </mxCell>
                <mxCell id="95" value="&lt;font style=&quot;font-size: 15px&quot;&gt;获取信息&lt;/font&gt;" style="text;html=1;strokeColor=none;fillColor=none;align=center;verticalAlign=middle;whiteSpace=wrap;rounded=0;labelBackgroundColor=none;sketch=0;fontColor=#1D3557;" vertex="1" parent="1">
                    <mxGeometry x="253" y="230" width="80" height="20" as="geometry"/>
                </mxCell>
            </root>
        </mxGraphModel>
    </diagram>
</mxfile>